{
  "source": "C:\\Users\\Peter\\Desktop\\stuff\\MIUN\\quantitative_research\\video_compression\\videos\\BVI-HD\\BVI-HD_CDVL_videos\\ORIG\\Fountain_1920x1080_50fps.mp4",
  "output": "C:\\Users\\Peter\\Desktop\\stuff\\MIUN\\quantitative_research\\video_compression\\compressed_videos\\BVI-HD\\h264\\1.5\\Fountain_1920x1080_50fps_h264.mp4",
  "codec": "h264",
  "ok": "Input #0, mov,mp4,m4a,3gp,3g2,mj2, from 'C:\\Users\\Peter\\Desktop\\stuff\\MIUN\\quantitative_research\\video_compression\\videos\\BVI-HD\\BVI-HD_CDVL_videos\\ORIG\\Fountain_1920x1080_50fps.mp4':\n  Metadata:\n    major_brand     : isom\n    minor_version   : 512\n    compatible_brands: isomiso2avc1mp41\n    encoder         : Lavf54.28.101\n  Duration: 00:00:05.00, start: 0.000000, bitrate: 603457 kb/s\n  Stream #0:0[0x1](und): Video: h264 (High 4:4:4 Predictive) (avc1 / 0x31637661), yuv420p(progressive), 1920x1080, 603453 kb/s, 50 fps, 50 tbr, 50 tbn (default)\n    Metadata:\n      handler_name    : VideoHandler\n      vendor_id       : [0][0][0][0]\n[out#0/mp4 @ 000002a1213a7980] Codec AVOption b:a (set bitrate (in bits/s)) has not been used for any stream. The most likely reason is either wrong type (e.g. a video option with no video streams) or that it is a private option of some decoder which was not actually used for any stream.\nStream mapping:\n  Stream #0:0 -> #0:0 (h264 (native) -> h264 (libx264))\nPress [q] to stop, [?] for help\n[libx264 @ 000002a121e60840] using cpu capabilities: MMX2 SSE2Fast SSSE3 SSE4.2 AVX FMA3 BMI2 AVX2\n[libx264 @ 000002a121e60840] profile High, level 5.0, 4:2:0, 8-bit\n[libx264 @ 000002a121e60840] 264 - core 165 r3222 b35605a - H.264/MPEG-4 AVC codec - Copyleft 2003-2025 - http://www.videolan.org/x264.html - options: cabac=1 ref=5 deblock=1:0:0 analyse=0x3:0x113 me=hex subme=8 psy=1 psy_rd=1.00:0.00 mixed_ref=1 me_range=16 chroma_me=1 trellis=2 8x8dct=1 cqm=0 deadzone=21,11 fast_pskip=1 chroma_qp_offset=-2 threads=18 lookahead_threads=3 sliced_threads=0 nr=0 decimate=1 interlaced=0 bluray_compat=0 constrained_intra=0 bframes=3 b_pyramid=2 b_adapt=1 b_bias=0 direct=3 weightb=1 open_gop=0 weightp=2 keyint=250 keyint_min=25 scenecut=40 intra_refresh=0 rc_lookahead=50 rc=cbr mbtree=1 bitrate=1500 ratetol=1.0 qcomp=0.60 qpmin=0 qpmax=69 qpstep=4 vbv_maxrate=1500 vbv_bufsize=1500 nal_hrd=none filler=0 ip_ratio=1.40 aq=1:1.00\nOutput #0, mp4, to 'C:\\Users\\Peter\\Desktop\\stuff\\MIUN\\quantitative_research\\video_compression\\compressed_videos\\BVI-HD\\h264\\1.5\\Fountain_1920x1080_50fps_h264.mp4':\n  Metadata:\n    major_brand     : isom\n    minor_version   : 512\n    compatible_brands: isomiso2avc1mp41\n    encoder         : Lavf62.3.100\n  Stream #0:0(und): Video: h264 (avc1 / 0x31637661), yuv420p(tv, progressive), 1920x1080, q=2-31, 1500 kb/s, 50 fps, 12800 tbn (default)\n    Metadata:\n      encoder         : Lavc62.11.100 libx264\n      handler_name    : VideoHandler\n      vendor_id       : [0][0][0][0]\n    Side data:\n      cpb: bitrate max/min/avg: 1500000/0/1500000 buffer size: 1500000 vbv_delay: N/A\nframe=    0 fps=0.0 q=0.0 size=       0KiB time=N/A bitrate=N/A speed=N/A elapsed=0:00:00.53    \nframe=    0 fps=0.0 q=0.0 size=       0KiB time=N/A bitrate=N/A speed=N/A elapsed=0:00:01.17    \nframe=    0 fps=0.0 q=0.0 size=       0KiB time=N/A bitrate=N/A speed=N/A elapsed=0:00:01.74    \nframe=    0 fps=0.0 q=0.0 size=       0KiB time=N/A bitrate=N/A speed=N/A elapsed=0:00:02.36    \nframe=   12 fps=4.1 q=46.0 size=       0KiB time=00:00:00.20 bitrate=   1.9kbits/s speed=0.0682x elapsed=0:00:02.93    \nframe=   40 fps= 11 q=45.0 size=       0KiB time=00:00:00.68 bitrate=   0.6kbits/s speed=0.192x elapsed=0:00:03.53    \nframe=   64 fps= 15 q=46.0 size=       0KiB time=00:00:01.16 bitrate=   0.3kbits/s speed=0.272x elapsed=0:00:04.26    \nframe=   84 fps= 17 q=46.0 size=       0KiB time=00:00:01.64 bitrate=   0.2kbits/s speed=0.334x elapsed=0:00:04.91    \nframe=  108 fps= 19 q=46.0 size=       0KiB time=00:00:02.04 bitrate=   0.2kbits/s speed=0.367x elapsed=0:00:05.55    \nframe=  128 fps= 21 q=45.0 size=     256KiB time=00:00:02.52 bitrate= 832.4kbits/s speed=0.408x elapsed=0:00:06.17    \nframe=  133 fps= 20 q=45.0 size=     256KiB time=00:00:02.62 bitrate= 800.6kbits/s speed=0.388x elapsed=0:00:06.74    \nframe=  143 fps= 20 q=46.0 size=     256KiB time=00:00:02.74 bitrate= 765.5kbits/s speed=0.375x elapsed=0:00:07.30    \nframe=  167 fps= 21 q=46.0 size=     256KiB time=00:00:03.22 bitrate= 651.4kbits/s speed=0.407x elapsed=0:00:07.92    \nframe=  205 fps= 24 q=45.0 size=     256KiB time=00:00:03.92 bitrate= 535.1kbits/s speed=0.462x elapsed=0:00:08.48    \nframe=  240 fps= 27 q=-1.0 size=     512KiB time=00:00:04.68 bitrate= 896.3kbits/s speed=0.517x elapsed=0:00:09.04    \n[mp4 @ 000002a1213a7a80] Starting second pass: moving the moov atom to the beginning of the file\n[out#0/mp4 @ 000002a1213a7980] video:670KiB audio:0KiB subtitle:0KiB other streams:0KiB global headers:0KiB muxing overhead: 0.560655%\nframe=  250 fps= 27 q=-1.0 Lsize=     674KiB time=00:00:04.96 bitrate=1112.9kbits/s speed=0.535x elapsed=0:00:09.26    \n[libx264 @ 000002a121e60840] frame I:2     Avg QP:44.03  size: 13030\n[libx264 @ 000002a121e60840] frame P:64    Avg QP:44.60  size:  4529\n[libx264 @ 000002a121e60840] frame B:184   Avg QP:47.17  size:  2008\n[libx264 @ 000002a121e60840] consecutive B-frames:  1.6%  0.8%  0.0% 97.6%\n[libx264 @ 000002a121e60840] mb I  I16..4: 49.8% 48.8%  1.3%\n[libx264 @ 000002a121e60840] mb P  I16..4:  7.5%  1.1%  0.0%  P16..4: 20.8%  0.5%  1.8%  0.0%  0.0%    skip:68.3%\n[libx264 @ 000002a121e60840] mb B  I16..4:  0.2%  0.0%  0.0%  B16..8: 28.3%  0.1%  0.0%  direct: 0.2%  skip:71.2%  L0:36.1% L1:63.8% BI: 0.1%\n[libx264 @ 000002a121e60840] 8x8 transform intra:22.3% inter:69.0%\n[libx264 @ 000002a121e60840] direct mvs  spatial:94.6% temporal:5.4%\n[libx264 @ 000002a121e60840] coded y,uvDC,uvAC intra: 4.0% 15.3% 1.0% inter: 0.6% 2.3% 0.0%\n[libx264 @ 000002a121e60840] i16 v,h,dc,p: 47% 24%  4% 26%\n[libx264 @ 000002a121e60840] i8 v,h,dc,ddl,ddr,vr,hd,vl,hu: 18%  6% 52%  4%  6%  4%  4%  3%  3%\n[libx264 @ 000002a121e60840] i4 v,h,dc,ddl,ddr,vr,hd,vl,hu:  8%  4% 12% 16% 16% 12% 11%  9% 13%\n[libx264 @ 000002a121e60840] i8c dc,h,v,p: 81% 14%  4%  1%\n[libx264 @ 000002a121e60840] Weighted P-Frames: Y:0.0% UV:0.0%\n[libx264 @ 000002a121e60840] ref P L0: 49.7%  4.7% 23.9%  9.5% 12.1%  0.1%\n[libx264 @ 000002a121e60840] ref B L0: 68.6% 18.9% 10.1%  2.4%\n[libx264 @ 000002a121e60840] ref B L1: 88.9% 11.1%\n[libx264 @ 000002a121e60840] kb/s:1096.64\n",
  "seconds": 9.69151258468628,
  "probe_out": {}
}